<svg width="24" height="24" viewBox="0 0 24 24" fill="none" xmlns="http://www.w3.org/2000/svg">
<path d="M11.9995 4.70654C16.6186 4.70664 20.3976 8.33495 20.3979 12.8521C20.3979 17.3694 16.6188 20.9984 11.9995 20.9985C7.38021 20.9985 3.60205 17.3695 3.60205 12.8521C3.60238 8.33492 7.38041 4.70658 11.9995 4.70654ZM11.9995 5.90576C8.00574 5.9058 4.8016 9.03446 4.80127 12.8521C4.80127 16.6699 8.00553 19.7983 11.9995 19.7983C15.9934 19.7982 19.1978 16.6699 19.1978 12.8521C19.1974 9.0345 15.9932 5.90586 11.9995 5.90576ZM11.9995 7.8501C12.3307 7.8503 12.5991 8.11846 12.5991 8.44971V12.2515H16.5483C16.8795 12.2517 17.1479 12.5208 17.1479 12.8521C17.1477 13.183 16.8794 13.4514 16.5483 13.4517H11.9995C11.6683 13.4517 11.4002 13.1832 11.3999 12.8521V8.44971C11.3999 8.11834 11.6681 7.8501 11.9995 7.8501ZM15.2925 3.00146C15.6238 3.00146 15.8929 3.26983 15.8931 3.60107C15.8931 3.93245 15.6239 4.20068 15.2925 4.20068H8.06592C7.73456 4.20067 7.46631 3.93244 7.46631 3.60107C7.46646 3.26984 7.73465 3.00147 8.06592 3.00146H15.2925Z" fill="#080808"/>
</svg>
