<svg width="24" height="24" viewBox="0 0 24 24" fill="none" xmlns="http://www.w3.org/2000/svg">
<path fill-rule="evenodd" clip-rule="evenodd" d="M12.0578 2.40823C12.074 2.40979 12.0896 2.41511 12.1056 2.41799C12.1276 2.4219 12.1496 2.42532 12.1711 2.43166C12.1834 2.43534 12.1951 2.44084 12.2072 2.44533C12.2324 2.45457 12.2575 2.46392 12.2814 2.47658C12.2891 2.4807 12.2963 2.48578 12.3039 2.49026C12.33 2.50558 12.3552 2.52249 12.3791 2.54201C12.3809 2.54349 12.3831 2.54442 12.3849 2.54592L22.5783 11.0938C22.8316 11.3066 22.8648 11.6847 22.6525 11.9385C22.4396 12.1924 22.0607 12.2256 21.8068 12.0127L20.2922 10.7422L19.3205 19.9092C19.2922 20.8591 18.4965 21.5938 17.5529 21.5938H6.04411C5.10541 21.5937 4.3135 20.8666 4.27751 19.9239L3.28629 11.0947L2.19254 12.0127C1.93863 12.2256 1.55974 12.1924 1.34684 11.9385C1.13462 11.6847 1.16766 11.3066 1.42106 11.0938L11.6144 2.54592C11.616 2.5446 11.6177 2.54332 11.6193 2.54201C11.6387 2.52609 11.6599 2.51318 11.6808 2.50002C11.6937 2.49191 11.7057 2.48265 11.7189 2.47561C11.7444 2.46216 11.7711 2.45197 11.798 2.4424C11.8075 2.43899 11.8167 2.43458 11.8263 2.43166C11.8497 2.42467 11.8737 2.42113 11.8976 2.41701C11.9508 2.4078 12.0044 2.40313 12.0578 2.40823ZM12.1525 4.63381C11.9363 4.45446 11.6131 4.45537 11.3986 4.63479H11.3976L4.63688 10.2842C4.51776 10.3841 4.45241 10.5232 4.44645 10.6651L5.46989 19.7901C5.47238 19.8123 5.47379 19.8351 5.47379 19.8574C5.47401 20.1374 5.71351 20.3945 6.04411 20.3946H17.5529C17.8835 20.3946 18.123 20.1374 18.1232 19.8574C18.1232 19.8364 18.1239 19.8149 18.1261 19.794L19.0978 10.6172C19.0928 10.473 19.0282 10.3326 18.9074 10.2324V10.2315L12.1525 4.63381Z" fill="#080808"/>
</svg>
