<svg width="20" height="20" viewBox="0 0 20 20" fill="none" xmlns="http://www.w3.org/2000/svg">
<path fill-rule="evenodd" clip-rule="evenodd" d="M10.0523 2.00684C10.0691 2.0086 10.0855 2.01313 10.1021 2.0166C10.1158 2.01945 10.1296 2.0214 10.1431 2.02539C10.1538 2.0286 10.1638 2.03413 10.1743 2.03809C10.1941 2.04546 10.2141 2.05257 10.2329 2.0625C10.2425 2.06755 10.251 2.07436 10.2603 2.08008C10.279 2.09154 10.2977 2.10309 10.315 2.11719C10.3168 2.11866 10.319 2.11959 10.3208 2.12109L18.815 9.24316C19.0265 9.42055 19.0538 9.73665 18.8765 9.94824C18.699 10.1595 18.3839 10.1871 18.1724 10.0098L16.9107 8.95215L16.1001 16.5986C16.0718 17.3856 15.4115 17.9928 14.6284 17.9932H5.03762C4.25526 17.9932 3.59484 17.3874 3.56496 16.6016L2.73879 9.24414L1.82766 10.0098C1.61617 10.1871 1.30104 10.1596 1.12356 9.94824C0.946236 9.73665 0.973525 9.42056 1.18508 9.24316L9.67922 2.12109L9.68117 2.11914C9.69776 2.10539 9.716 2.09431 9.73391 2.08301C9.7435 2.07693 9.75236 2.0698 9.76223 2.06445L9.77199 2.05957C9.7865 2.05215 9.80186 2.04694 9.81692 2.04102C9.82905 2.03621 9.84066 2.03017 9.85305 2.02637L9.86184 2.02344C9.87364 2.02007 9.88598 2.01909 9.89797 2.0166C9.91459 2.01313 9.93098 2.00859 9.94777 2.00684H10.0523ZM10.1275 3.85938C9.94746 3.71022 9.67823 3.71134 9.49953 3.86035L9.49856 3.86133L3.86477 8.56934L3.86379 8.56836C3.76399 8.65214 3.70989 8.7697 3.70559 8.88867L4.5591 16.4902C4.56117 16.5086 4.56202 16.5274 4.56203 16.5459C4.56203 16.7793 4.76195 16.9932 5.03762 16.9932H14.6284C14.9038 16.9928 15.103 16.7791 15.103 16.5459C15.1031 16.5284 15.1041 16.5105 15.106 16.4932L15.9155 8.84766C15.9117 8.72695 15.8575 8.60914 15.7564 8.52539L10.1275 3.86035V3.85938Z" fill="#F9F9F9"/>
</svg>
