<svg width="24" height="24" viewBox="0 0 24 24" fill="none" xmlns="http://www.w3.org/2000/svg">
<path fill-rule="evenodd" clip-rule="evenodd" d="M11.2173 2.58619C11.7087 2.33618 12.2913 2.33618 12.7827 2.58619L20.2788 6.40162C20.5565 6.543 20.7399 6.7702 20.8335 7.02467C20.9352 7.12843 20.9985 7.27035 20.9985 7.42701V15.3948C20.9984 15.9943 20.6863 16.5509 20.1753 16.8645L12.8677 21.3469C12.3413 21.6697 11.6822 21.6864 11.1401 21.3909L3.90088 17.4436C3.34691 17.1415 3.0017 16.5609 3.00146 15.9299V7.42701C3.00146 7.2706 3.06413 7.12839 3.16553 7.02467C3.25905 6.77007 3.4434 6.54306 3.72119 6.40162L11.2173 2.58619ZM4.15186 15.9299C4.15209 16.1401 4.2671 16.3342 4.45166 16.4348L11.4243 20.2366V12.3713L4.15186 8.6692V15.9299ZM12.5747 12.3713V20.178L19.5737 15.885C19.744 15.7806 19.848 15.5945 19.8481 15.3948V8.6692L12.5747 12.3713ZM4.24268 7.42604L11.9995 11.3733L15.6587 9.511L8.12744 5.64186C8.06863 5.61164 8.01832 5.57097 7.9751 5.52565L4.24268 7.42604ZM12.2612 3.61061C12.0975 3.52735 11.9025 3.52735 11.7388 3.61061L9.20264 4.90065L16.4741 8.63697L16.9233 8.86744L19.7573 7.42604L12.2612 3.61061Z" fill="#080808"/>
</svg>
