<svg width="24" height="24" viewBox="0 0 24 24" fill="none" xmlns="http://www.w3.org/2000/svg">
<path d="M17.5977 15.9873C17.9231 15.9873 18.1865 16.2507 18.1865 16.5762V18.2041H19.8096C20.135 18.2041 20.3994 18.4675 20.3994 18.793C20.3993 19.1183 20.1349 19.3818 19.8096 19.3818H18.1865V21.0098C18.1865 21.3352 17.9231 21.5996 17.5977 21.5996C17.2722 21.5996 17.0088 21.3352 17.0088 21.0098V19.3818H15.3857C15.0604 19.3818 14.797 19.1183 14.7969 18.793C14.7969 18.4675 15.0603 18.2041 15.3857 18.2041H17.0088V16.5762C17.0088 16.2507 17.2722 15.9874 17.5977 15.9873ZM11.7559 2.40039C15.0056 2.40063 17.6411 4.97599 17.6416 8.15234L17.6338 8.44922C17.5152 10.7336 16.0318 12.6652 13.9658 13.4844C14.7799 13.6274 15.56 13.8775 16.2725 14.2939C16.5531 14.4582 16.6482 14.8198 16.4844 15.1006C16.3201 15.3815 15.9587 15.4756 15.6777 15.3115C14.6077 14.686 13.2818 14.4932 11.7559 14.4932C7.82209 14.4933 4.7785 17.2484 4.77832 20.4785C4.77828 20.8038 4.51474 21.0672 4.18945 21.0674C3.86401 21.0674 3.60062 20.804 3.60059 20.4785C3.60073 17.0897 6.2375 14.3363 9.70605 13.5449C7.46672 12.7312 5.87109 10.6245 5.87109 8.15234C5.87164 4.97597 8.50609 2.40059 11.7559 2.40039ZM11.7559 3.5791C9.13154 3.5793 7.05035 5.6521 7.0498 8.15234C7.0498 10.653 9.1312 12.7264 11.7559 12.7266C14.3805 12.7263 16.4629 10.653 16.4629 8.15234C16.4623 5.65212 14.3801 3.57934 11.7559 3.5791Z" fill="#080808"/>
</svg>
