<svg width="32" height="32" viewBox="0 0 32 32" fill="none" xmlns="http://www.w3.org/2000/svg">
<circle cx="16" cy="16" r="16" fill="#323232"/>
<path d="M15.9199 8C18.6775 8 20.9129 10.1799 20.9131 12.8691C20.9131 14.9615 19.5596 16.7444 17.6602 17.4336C20.6022 18.1039 22.8398 20.4347 22.8398 23.3047C22.8397 23.5806 22.6158 23.8046 22.3398 23.8047C22.064 23.8045 21.84 23.5805 21.8398 23.3047C21.8398 20.5719 19.2588 18.2393 15.9199 18.2393C12.5812 18.2394 10 20.572 10 23.3047C9.99982 23.5807 9.77603 23.8047 9.5 23.8047C9.22415 23.8045 9.00018 23.5805 9 23.3047C9 20.4346 11.2385 18.1038 14.1807 17.4336C12.2809 16.7447 10.9268 14.9617 10.9268 12.8691C10.927 10.1801 13.1625 8.00019 15.9199 8ZM15.9199 9C13.691 9.00019 11.927 10.7558 11.9268 12.8691C11.9268 14.9826 13.6909 16.7391 15.9199 16.7393C18.1491 16.7393 19.9131 14.9827 19.9131 12.8691C19.9128 10.7557 18.149 9 15.9199 9Z" fill="white"/>
</svg>
