<svg width="11" height="11" viewBox="0 0 11 11" fill="none" xmlns="http://www.w3.org/2000/svg">
<path d="M7.5459 0C7.78013 0 7.9707 0.189601 7.9707 0.423828V1.17871H8.28125C9.69868 1.17886 10.8474 2.3277 10.8477 3.74512V8.28125C10.8475 9.69868 9.6987 10.8475 8.28125 10.8477H2.56641C1.14896 10.8475 0.00019713 9.69868 0 8.28125V3.74512C0.000218235 2.3277 1.14897 1.17886 2.56641 1.17871H2.76953V0.423828C2.76953 0.189673 2.95923 0.000117319 3.19336 0C3.42748 0.000131695 3.61816 0.189682 3.61816 0.423828V1.17871H7.12207V0.423828C7.12207 0.189688 7.31179 0.000142002 7.5459 0ZM0.847656 8.28125C0.847853 9.23023 1.61742 9.99985 2.56641 10H8.28125C9.23024 9.99985 9.9998 9.23023 10 8.28125V5.00391H0.847656V8.28125ZM2.81738 8.00293C3.05408 8.00293 3.24609 8.19495 3.24609 8.43164V8.57617C3.24609 8.81287 3.05408 9.00488 2.81738 9.00488H2.53906C2.30237 9.00488 2.11035 8.81287 2.11035 8.57617V8.43164C2.11035 8.19495 2.30237 8.00293 2.53906 8.00293H2.81738ZM5.61719 8.00293C5.85388 8.00293 6.0459 8.19495 6.0459 8.43164V8.57617C6.0459 8.81287 5.85388 9.00488 5.61719 9.00488H5.33887C5.10217 9.00488 4.91016 8.81287 4.91016 8.57617V8.43164C4.91016 8.19495 5.10217 8.00293 5.33887 8.00293H5.61719ZM8.30664 8.00293C8.54333 8.00293 8.73535 8.19495 8.73535 8.43164V8.57617C8.73535 8.81287 8.54333 9.00488 8.30664 9.00488H8.02734C7.79081 9.00469 7.59961 8.81275 7.59961 8.57617V8.43164C7.59961 8.19506 7.79081 8.00312 8.02734 8.00293H8.30664ZM2.76465 6.01367C3.00123 6.01367 3.19317 6.20487 3.19336 6.44141V6.58691C3.1933 6.82355 3.0013 7.01562 2.76465 7.01562H2.48633C2.24967 7.01562 2.05768 6.82355 2.05762 6.58691V6.44141C2.05781 6.20487 2.24975 6.01367 2.48633 6.01367H2.76465ZM5.56152 6.01367C5.7981 6.01367 5.99005 6.20487 5.99023 6.44141V6.58691C5.99017 6.82355 5.79818 7.01562 5.56152 7.01562H5.2832C5.04655 7.01562 4.85455 6.82355 4.85449 6.58691V6.44141C4.85468 6.20487 5.04663 6.01367 5.2832 6.01367H5.56152ZM8.25391 6.01367C8.49042 6.01375 8.68243 6.20492 8.68262 6.44141V6.58691C8.68256 6.82351 8.49049 7.01554 8.25391 7.01562H7.97461C7.73804 7.01553 7.54596 6.82349 7.5459 6.58691V6.44141C7.54609 6.20493 7.73812 6.01377 7.97461 6.01367H8.25391ZM2.56641 2.02637C1.61743 2.02652 0.847874 2.79616 0.847656 3.74512V4.15527H10V3.74512C9.99978 2.79616 9.23023 2.02652 8.28125 2.02637H7.9707V2.78125C7.9706 3.01539 7.78006 3.20508 7.5459 3.20508C7.31186 3.20494 7.12218 3.0153 7.12207 2.78125V2.02637H3.61816V2.78125C3.61806 3.0153 3.42741 3.20495 3.19336 3.20508C2.9593 3.20496 2.76964 3.01531 2.76953 2.78125V2.02637H2.56641Z" fill="#080808"/>
</svg>
