<svg width="30" height="34" viewBox="0 0 30 34" fill="none" xmlns="http://www.w3.org/2000/svg">
<path d="M15.001 4.11426C23.2808 4.11426 30.0027 10.7991 30.0029 19.0566C30.0029 27.3144 23.2809 34 15.001 34C6.72116 33.9998 3.36389e-06 27.3142 0 19.0566C0.000245815 10.7992 6.72131 4.11443 15.001 4.11426ZM15.001 6.61426C8.09197 6.61443 2.50025 12.19 2.5 19.0566C2.5 25.9235 8.09182 31.4998 15.001 31.5C21.9103 31.5 27.5029 25.9236 27.5029 19.0566C27.5027 12.1899 21.9101 6.61426 15.001 6.61426ZM15.001 9.81934C15.6913 9.81934 16.2509 10.379 16.251 11.0693V17.8066H23.0225C23.7127 17.8066 24.2723 18.3664 24.2725 19.0566C24.2725 19.747 23.7128 20.3066 23.0225 20.3066H15.001C14.3106 20.3066 13.751 19.747 13.751 19.0566V11.0693C13.751 10.379 14.3106 9.81934 15.001 9.81934ZM20.8096 0C21.4999 8.50439e-05 22.0596 0.559696 22.0596 1.25C22.0595 1.94023 21.4998 2.49991 20.8096 2.5H8.06543C7.37512 2.5 6.81551 1.94029 6.81543 1.25C6.81543 0.559644 7.37507 0 8.06543 0H20.8096Z" fill="#DEDEDE"/>
</svg>
