<svg width="8" height="8" viewBox="0 0 8 8" fill="none" xmlns="http://www.w3.org/2000/svg">
<circle cx="4" cy="4" r="3.66667" fill="#EF4444" stroke="#EF4444" stroke-width="0.666667"/>
<path fill-rule="evenodd" clip-rule="evenodd" d="M5.11057 2.60959C5.25693 2.46342 5.49443 2.46351 5.64084 2.60959C5.78729 2.75604 5.78729 2.9944 5.64084 3.14084L4.65647 4.12522L5.64182 5.11057C5.78781 5.2569 5.78775 5.49447 5.64182 5.64084C5.49541 5.78725 5.25703 5.78716 5.11057 5.64084L4.12522 4.65549L3.14084 5.64084C2.99439 5.78729 2.75604 5.78729 2.60959 5.64084C2.4635 5.49444 2.46344 5.25693 2.60959 5.11057L3.59494 4.12522L2.61057 3.14084C2.46412 2.9944 2.46412 2.75604 2.61057 2.60959C2.75699 2.46364 2.99452 2.46347 3.14084 2.60959L4.12522 3.59397L5.11057 2.60959Z" fill="white"/>
</svg>
