<svg width="26" height="33" viewBox="0 0 26 33" fill="none" xmlns="http://www.w3.org/2000/svg">
<path d="M12.5176 0.0136719C15.8471 0.0138023 19.0318 1.39349 21.373 3.83496C23.7128 6.27526 25.0215 9.5769 25.0215 13.0107C25.0213 17.0782 22.8743 21.1165 20.5098 24.3564C18.1251 27.624 15.4066 30.2301 14.043 31.458C14.0265 31.4728 14.0096 31.4873 13.9922 31.501C13.5721 31.8304 13.054 32.0126 12.5176 32.0127C11.9813 32.0126 11.464 31.8302 11.0439 31.501C11.0265 31.4873 11.0087 31.4728 10.9922 31.458C9.62854 30.2301 6.90995 27.6237 4.52539 24.3564C2.1609 21.1165 0.014792 17.0782 0.0146484 13.0107C0.0146484 9.5767 1.32212 6.2753 3.66211 3.83496C6.00339 1.39332 9.1879 0.0137293 12.5176 0.0136719ZM12.5176 1.98633C9.73857 1.98639 7.06418 3.13811 5.08594 5.20117C3.10654 7.26568 1.9873 10.0741 1.9873 13.0107C1.98745 16.4392 3.82746 20.0532 6.11914 23.1934C8.36758 26.2741 10.946 28.7574 12.2725 29.9551C12.3485 30.0113 12.4339 30.04 12.5176 30.04C12.6002 30.0399 12.6844 30.0118 12.7598 29.957C14.0855 28.7603 16.666 26.2764 18.916 23.1934C21.2077 20.0532 23.0477 16.4392 23.0479 13.0107C23.0479 10.0742 21.9285 7.26566 19.9492 5.20117C17.971 3.13815 15.2965 1.98646 12.5176 1.98633ZM12.5186 7.51758C15.4871 7.51777 17.8242 10.015 17.8242 13.0078C17.8241 16.0005 15.487 18.4988 12.5186 18.499C9.55012 18.4988 7.214 16.0005 7.21387 13.0078C7.21392 10.0151 9.55007 7.51783 12.5186 7.51758ZM12.5186 9.49023C10.7171 9.49049 9.18658 11.026 9.18652 13.0078C9.18666 14.9896 10.7171 16.5251 12.5186 16.5254C14.32 16.5252 15.8514 14.9896 15.8516 13.0078C15.8515 11.0259 14.3201 9.49043 12.5186 9.49023Z" fill="#004B93"/>
<path fill-rule="evenodd" clip-rule="evenodd" d="M12.501 0C15.8301 0.000135009 19.014 1.38096 21.3545 3.82324C23.6934 6.2641 25.0009 9.56586 25.001 13C25.0008 17.0683 22.8548 21.1059 20.4932 24.3438C18.1112 27.6095 15.3963 30.2141 14.0342 31.4414C14.0174 31.4565 14.0001 31.4714 13.9824 31.4854C13.5604 31.8165 13.0401 31.9999 12.501 32C11.9619 32 11.4416 31.8164 11.0195 31.4854C11.0019 31.4715 10.9844 31.4564 10.9678 31.4414C9.60576 30.2142 6.89072 27.6093 4.50879 24.3438C2.14716 21.1059 0.000128775 17.0683 0 13C3.82296e-05 9.56566 1.30834 6.26415 3.64746 3.82324C5.98806 1.38088 9.17173 0 12.501 0ZM12.501 2C9.7303 2 7.06355 3.14853 5.09082 5.20703C3.11697 7.26694 2.00101 10.0694 2.00098 13C2.00111 16.4209 3.83634 20.0285 6.12402 23.165C8.37074 26.2452 10.9476 28.7281 12.2705 29.9229C12.3426 29.9743 12.4228 30 12.501 30C12.5789 29.9999 12.6586 29.9741 12.7305 29.9229C14.0533 28.7282 16.6309 26.2458 18.8779 23.165C21.1656 20.0285 23.0008 16.4209 23.001 13C23.0009 10.0696 21.8847 7.2669 19.9111 5.20703C17.9385 3.14862 15.2715 2.00013 12.501 2ZM12.5186 7.50391C15.495 7.5041 17.8378 10.0082 17.8379 13.0078C17.8378 16.0074 15.495 18.5115 12.5186 18.5117C9.5422 18.5115 7.20033 16.0073 7.2002 13.0078C7.20025 10.0082 9.54215 7.50416 12.5186 7.50391ZM12.5186 9.50391C10.725 9.50416 9.20025 11.0328 9.2002 13.0078C9.20033 14.9827 10.7251 16.5115 12.5186 16.5117C14.3121 16.5115 15.8378 14.9828 15.8379 13.0078C15.8378 11.0328 14.3121 9.5041 12.5186 9.50391Z" fill="#004B93"/>
</svg>
