<svg width="17" height="20" viewBox="0 0 17 20" fill="none" xmlns="http://www.w3.org/2000/svg">
<path d="M13.9971 13.5869C14.3225 13.5869 14.5859 13.8503 14.5859 14.1758V15.8037H16.209C16.5345 15.8037 16.7988 16.0671 16.7988 16.3926C16.7987 16.7179 16.5344 16.9814 16.209 16.9814H14.5859V18.6094C14.5859 18.9348 14.3225 19.1992 13.9971 19.1992C13.6717 19.1992 13.4082 18.9348 13.4082 18.6094V16.9814H11.7852C11.4598 16.9814 11.1964 16.7179 11.1963 16.3926C11.1963 16.0671 11.4597 15.8037 11.7852 15.8037H13.4082V14.1758C13.4082 13.8503 13.6717 13.587 13.9971 13.5869ZM8.15527 0C11.405 0.000239497 14.0405 2.5756 14.041 5.75195L14.0332 6.04883C13.9146 8.33317 12.4312 10.2648 10.3652 11.084C11.1793 11.227 11.9594 11.4771 12.6719 11.8936C12.9525 12.0578 13.0476 12.4194 12.8838 12.7002C12.7196 12.9811 12.3581 13.0752 12.0771 12.9111C11.0071 12.2856 9.68119 12.0928 8.15527 12.0928C4.2215 12.0929 1.17791 14.848 1.17773 18.0781C1.1777 18.4034 0.914151 18.6668 0.588867 18.667C0.263423 18.667 3.89609e-05 18.4036 0 18.0781C0.000144723 14.6893 2.63692 11.9359 6.10547 11.1445C3.86614 10.3308 2.27051 8.22406 2.27051 5.75195C2.27105 2.57558 4.90551 0.000201483 8.15527 0ZM8.15527 1.17871C5.53096 1.17891 3.44976 3.25171 3.44922 5.75195C3.44922 8.25264 5.53061 10.326 8.15527 10.3262C10.7799 10.3259 12.8623 8.25261 12.8623 5.75195C12.8618 3.25173 10.7796 1.17895 8.15527 1.17871Z" fill="#DA5B00"/>
</svg>
