<svg width="16" height="12" viewBox="0 0 16 12" fill="none" xmlns="http://www.w3.org/2000/svg">
<path d="M5.62402 1.1377C8.71547 1.13781 11.2471 3.55649 11.2471 6.57031C11.2465 9.5837 8.71515 12.0018 5.62402 12.002C2.53298 12.0017 0.000526623 9.58364 0 6.57031C0 3.55655 2.53266 1.1379 5.62402 1.1377ZM5.62402 1.93848C2.94612 1.93868 0.800781 4.02638 0.800781 6.57031C0.80131 9.11381 2.94645 11.201 5.62402 11.2012C8.30168 11.2011 10.4467 9.11387 10.4473 6.57031C10.4473 4.02633 8.30201 1.93859 5.62402 1.93848ZM5.62402 3.2334C5.84488 3.2334 6.02424 3.41298 6.02441 3.63379V6.16895H8.6709C8.89175 6.16895 9.07112 6.34852 9.07129 6.56934C9.0711 6.79013 8.89174 6.96875 8.6709 6.96875H5.62402C5.40321 6.96871 5.22382 6.79011 5.22363 6.56934V3.63379C5.2238 3.413 5.4032 3.23344 5.62402 3.2334ZM7.83008 0C8.05091 1.44124e-05 8.23029 0.179595 8.23047 0.400391C8.23047 0.621338 8.05102 0.800767 7.83008 0.800781H2.98926C2.76835 0.800724 2.58887 0.621311 2.58887 0.400391C2.58905 0.179621 2.76846 5.73534e-05 2.98926 0H7.83008Z" fill="#080808"/>
<circle cx="11.127" cy="7.00146" r="4" fill="white"/>
<circle cx="11.1264" cy="7.00149" r="3.6" fill="#830D21"/>
<path fill-rule="evenodd" clip-rule="evenodd" d="M12.0512 5.75568C12.1861 5.62055 12.4061 5.61998 12.5415 5.7547C12.6765 5.88942 12.6767 6.10851 12.5424 6.24396L11.6362 7.15314L12.5415 8.06329C12.6763 8.19878 12.6759 8.41866 12.5405 8.55353C12.4049 8.68816 12.186 8.68703 12.0512 8.55157L11.1479 7.64435L10.2456 8.55157C10.1108 8.68703 9.89185 8.68815 9.7563 8.55353C9.62077 8.41867 9.62047 8.19882 9.75533 8.06329L10.6596 7.15314L9.75435 6.24396C9.61999 6.10852 9.62028 5.88946 9.75533 5.7547C9.89078 5.62006 10.1107 5.62046 10.2456 5.75568L11.1479 6.6629L12.0512 5.75568Z" fill="white"/>
</svg>
