<svg width="26" height="32" viewBox="0 0 26 32" fill="none" xmlns="http://www.w3.org/2000/svg">
<path d="M22.1602 0C24.2809 0 25.9999 1.71914 26 3.83984V28.1602L25.9951 28.3574C25.8924 30.3864 24.2147 32 22.1602 32H3.83984C1.78535 31.9999 0.107633 30.3864 0.00488281 28.3574L0 28.1602V3.83984C8.4522e-05 1.71919 1.71919 8.44903e-05 3.83984 0H22.1602ZM3.83984 1.5C2.54762 1.50008 1.50008 2.54762 1.5 3.83984V28.1602C1.50008 29.4524 2.54762 30.4999 3.83984 30.5H22.1602C23.4525 30.5 24.4999 29.4524 24.5 28.1602V3.83984C24.4999 2.54757 23.4525 1.5 22.1602 1.5H3.83984ZM13 10C16.8661 10 20.001 13.1347 20.001 17.001L19.9912 17.3604C19.804 21.0595 16.7455 24.001 13 24.001C9.25463 24.0008 6.19602 21.0594 6.00879 17.3604L6 17.001C6 13.1347 9.13398 10.0001 13 10ZM13 11.5C9.96248 11.5001 7.5 13.9631 7.5 17.001C7.50021 20.0387 9.96261 22.5008 13 22.501C16.0375 22.501 18.5008 20.0388 18.501 17.001C18.501 13.963 16.0376 11.5 13 11.5Z" fill="#004B93"/>
<path d="M10.0005 15.8332L11.7974 18.697C11.9907 19.0051 12.4321 19.0255 12.6531 18.7366L19.3344 9.99951" stroke="#004B93" stroke-width="2" stroke-linecap="round"/>
<path d="M10.0005 15.8332L11.7974 18.697C11.9907 19.0051 12.4321 19.0255 12.6531 18.7366L19.3344 9.99951" stroke="#004B93" stroke-width="2" stroke-linecap="round"/>
</svg>
