<svg width="14" height="14" viewBox="0 0 14 14" fill="none" xmlns="http://www.w3.org/2000/svg">
<path d="M9.75302 1.38973C10.094 1.04874 10.5565 0.857178 11.0387 0.857178C11.5209 0.857178 11.9834 1.04874 12.3244 1.38973C12.6654 1.73071 12.8569 2.19319 12.8569 2.67541C12.8569 3.15764 12.6654 3.62011 12.3244 3.9611L4.59913 11.6872C4.39561 11.8906 4.14418 12.0394 3.86801 12.1201L1.40549 12.84C1.33174 12.8615 1.25356 12.8628 1.17913 12.8438C1.10471 12.8247 1.03678 12.786 0.982456 12.7317C0.928131 12.6773 0.889409 12.6094 0.870342 12.535C0.851275 12.4606 0.852564 12.3824 0.874076 12.3086L1.59406 9.8461C1.67508 9.57015 1.82423 9.31902 2.02776 9.11584L9.75302 1.38973Z" stroke="#0F172A" stroke-width="1.71425" stroke-linecap="round" stroke-linejoin="round"/>
</svg>
