<svg width="7" height="7" viewBox="0 0 7 7" fill="none" xmlns="http://www.w3.org/2000/svg">
<path d="M3.18262 0C3.51396 0 3.78217 0.268283 3.78223 0.599609V2.58301H5.76562C6.09692 2.58306 6.36616 2.85132 6.36621 3.18262C6.36621 3.51396 6.09695 3.78217 5.76562 3.78223H3.78223V5.76562C3.78223 6.097 3.51399 6.36621 3.18262 6.36621C2.85129 6.36616 2.58301 6.09696 2.58301 5.76562V3.78223H0.599609C0.268239 3.78223 0 3.51399 0 3.18262C5.27543e-05 2.85129 0.268271 2.58301 0.599609 2.58301H2.58301V0.599609C2.58306 0.268316 2.85132 5.27323e-05 3.18262 0Z" fill="#21B158"/>
</svg>
