<svg width="8" height="11" viewBox="0 0 8 11" fill="none" xmlns="http://www.w3.org/2000/svg">
<path d="M3.99951 1.521C4.41373 1.521 4.74951 1.85678 4.74951 2.271V4.74951H7.229C7.64293 4.74985 7.979 5.08551 7.979 5.49951C7.979 5.91352 7.64293 6.24918 7.229 6.24951H4.74951V8.729C4.74921 9.14296 4.41354 9.479 3.99951 9.479C3.58548 9.479 3.24981 9.14296 3.24951 8.729V6.24951H0.770996C0.356783 6.24951 0.0209961 5.91373 0.0209961 5.49951C0.0209961 5.0853 0.356783 4.74951 0.770996 4.74951H3.24951V2.271C3.24951 1.85678 3.5853 1.521 3.99951 1.521Z" fill="currentColor"/>
</svg>
