<svg width="20" height="20" viewBox="0 0 20 20" fill="none" xmlns="http://www.w3.org/2000/svg">
<path d="M10 1.75C14.5563 1.75 18.25 5.44365 18.25 10C18.25 14.5563 14.5563 18.25 10 18.25C5.44365 18.25 1.75 14.5563 1.75 10C1.75 5.44365 5.44365 1.75 10 1.75ZM10 3.25C6.27208 3.25 3.25 6.27208 3.25 10C3.25 13.7279 6.27208 16.75 10 16.75C13.7279 16.75 16.75 13.7279 16.75 10C16.75 6.27208 13.7279 3.25 10 3.25ZM10 13.125C10.5178 13.125 10.9375 13.5447 10.9375 14.0625C10.9375 14.5803 10.5178 15 10 15C9.48223 15 9.0625 14.5803 9.0625 14.0625C9.0625 13.5447 9.48223 13.125 10 13.125ZM8.87598 5.72363C9.41266 5.50139 10.0035 5.44332 10.5732 5.55664C11.1429 5.66999 11.6664 5.94967 12.0771 6.36035C12.4878 6.77104 12.7674 7.29465 12.8809 7.86426C12.9942 8.43393 12.9361 9.02487 12.7139 9.56152C12.4916 10.0982 12.1148 10.5571 11.6318 10.8799C11.3601 11.0615 11.0607 11.193 10.748 11.2754C10.7346 11.6778 10.4057 12 10 12C9.58579 12 9.25 11.6642 9.25 11.25V10.625C9.2501 10.4262 9.32916 10.2353 9.46973 10.0947C9.61036 9.9542 9.80118 9.875 10 9.875C10.2843 9.87499 10.5624 9.79076 10.7988 9.63281C11.0351 9.47487 11.2194 9.24987 11.3281 8.9873C11.4367 8.72486 11.4655 8.4358 11.4102 8.15723C11.3546 7.87851 11.2176 7.62185 11.0166 7.4209C10.8156 7.21995 10.559 7.08279 10.2803 7.02734C10.0017 6.97198 9.71267 7.00075 9.4502 7.10938C9.18766 7.21812 8.96263 7.40245 8.80469 7.63867C8.6468 7.87497 8.56257 8.15332 8.5625 8.4375C8.5625 8.8517 8.2267 9.18748 7.8125 9.1875C7.39829 9.1875 7.0625 8.85171 7.0625 8.4375C7.06257 7.85668 7.23494 7.28861 7.55762 6.80566C7.88038 6.32272 8.33932 5.94592 8.87598 5.72363Z" fill="#747474"/>
</svg>
