<svg width="11" height="12" viewBox="0 0 11 12" fill="none" xmlns="http://www.w3.org/2000/svg">
<path d="M4.95703 0.00585938C7.44783 0.131629 9.42849 2.18317 9.42871 4.69531C9.42871 5.94159 8.93987 7.07327 8.14453 7.91406C8.18555 7.94124 8.22464 7.97304 8.25781 8.0127L10.877 11.1436C11.0615 11.3644 11.0321 11.6931 10.8115 11.8779C10.5905 12.0628 10.2611 12.0334 10.0762 11.8125L7.45703 8.68262C7.4265 8.64612 7.40372 8.60572 7.38477 8.56445C6.62563 9.08541 5.70636 9.39151 4.71484 9.3916L4.47168 9.38574C1.98078 9.25993 0 7.20762 0 4.69531C0.000228182 2.10212 2.1113 0 4.71484 0L4.95703 0.00585938ZM4.71484 1.04395C2.6837 1.04395 1.04417 2.68233 1.04395 4.69531C1.04395 6.70849 2.68356 8.34766 4.71484 8.34766C6.74592 8.34741 8.38574 6.70834 8.38574 4.69531C8.38551 2.68248 6.74578 1.04419 4.71484 1.04395Z" fill="#080808"/>
</svg>
